<?xml version="1.0" standalone="no"?>
<!DOCTYPE svg PUBLIC "-//W3C//DTD SVG 20010904//EN"
 "http://www.w3.org/TR/2001/REC-SVG-20010904/DTD/svg10.dtd">
<svg version="1.0" xmlns="http://www.w3.org/2000/svg"
 width="475.000000pt" height="105.000000pt" viewBox="0 0 475.000000 105.000000"
 preserveAspectRatio="xMidYMid meet">

<g transform="translate(0.000000,105.000000) scale(0.100000,-0.100000)"
fill="#000000" stroke="none">
<path d="M10 523 l0 -513 2365 0 2365 0 0 516 c0 408 -3 515 -12 512 -9 -3
-14 -35 -16 -104 -1 -54 -7 -103 -11 -107 -5 -5 -6 3 -4 17 3 16 1 26 -6 26
-7 0 -9 -6 -5 -13 3 -6 -9 4 -29 23 -19 19 -33 38 -30 43 2 4 -2 7 -10 7 -8 0
-22 10 -33 21 -19 22 -19 22 6 10 24 -11 24 -11 6 3 -11 9 -23 16 -27 16 -4 0
-10 7 -13 16 -3 8 -2 12 4 9 6 -3 10 -2 10 3 0 23 130 22 -2528 25 l-2032 2 0
-512z m4429 452 c78 -18 149 -60 181 -108 22 -32 22 -32 16 -4 -10 42 2 32 25
-20 27 -62 49 -214 49 -334 l0 -96 -82 -13 c-86 -13 -126 -12 -293 10 -88 11
-108 10 -165 -4 -38 -10 -67 -13 -73 -7 -15 15 -27 139 -34 375 l-6 229 156
-6 c86 -4 188 -14 226 -22z m-3946 -133 c27 -11 27 -12 27 -108 l0 -96 -35 31
c-30 26 -44 31 -85 31 -41 0 -55 -5 -84 -31 -36 -31 -56 -79 -56 -133 0 -46
36 -111 74 -131 43 -23 118 -16 150 14 12 11 25 21 29 21 4 0 7 -41 7 -90 0
-89 0 -91 -27 -101 -50 -20 -118 -22 -177 -5 -79 23 -155 97 -186 181 -60 163
22 364 173 419 47 17 145 16 190 -2z m503 -6 c61 -28 115 -82 146 -145 19 -39
23 -62 23 -146 0 -89 -3 -106 -27 -151 -98 -187 -332 -225 -469 -77 -65 71
-84 122 -83 233 0 83 3 101 26 146 31 59 93 118 152 145 61 28 166 26 232 -5z
m2507 -4 l46 -21 -25 -58 c-14 -32 -27 -59 -29 -61 -2 -2 -17 4 -34 12 -41 22
-84 20 -105 -3 -27 -30 -7 -54 73 -85 108 -42 141 -84 141 -179 -1 -156 -139
-244 -297 -191 -26 9 -60 25 -75 36 l-27 19 31 64 31 63 34 -25 c46 -35 112
-42 137 -14 31 34 15 65 -46 90 -142 57 -163 81 -162 179 0 41 7 79 16 97 20
37 65 80 98 94 37 16 139 7 193 -17z m-1957 -15 c130 -66 190 -216 146 -364
-26 -84 -73 -142 -144 -177 -48 -24 -62 -26 -180 -26 l-128 0 0 301 0 302 128
-5 c111 -5 134 -9 178 -31z m532 -39 l3 -68 -81 0 -80 0 0 -47 0 -48 72 0 73
0 3 -67 3 -68 -76 0 -75 0 0 -50 0 -50 80 0 80 0 0 -65 0 -65 -155 0 -155 0 0
293 c0 162 3 297 7 301 4 3 72 5 152 4 l146 -3 3 -67z m248 -108 c35 -97 65
-168 68 -160 3 8 32 87 64 175 l57 160 69 3 c38 2 73 -1 77 -5 5 -5 -36 -123
-90 -263 -54 -140 -104 -272 -110 -293 l-13 -38 -60 3 -61 3 -108 289 c-60
158 -106 292 -103 298 3 5 38 8 76 6 l71 -3 63 -175z m725 -114 c55 -159 99
-293 99 -298 0 -5 -35 -8 -77 -6 l-77 3 -15 48 -15 47 -92 0 -92 0 -17 -50
-17 -50 -74 0 c-47 0 -74 4 -74 11 0 22 194 574 204 582 6 4 42 6 80 5 l69 -3
98 -289z m897 222 l3 -68 -86 0 -85 0 0 -47 0 -48 72 0 73 0 3 -67 3 -68 -76
0 -75 0 0 -115 0 -115 -70 0 -70 0 0 300 0 301 153 -3 152 -3 3 -67z m468
-404 c92 -14 208 -7 270 16 27 11 38 -1 29 -29 -10 -32 -198 -42 -320 -16 -79
17 -171 19 -229 6 -21 -5 -45 -7 -53 -4 -26 10 -7 28 43 40 53 13 116 10 260
-13z m-35 -50 c76 -15 268 -16 319 -3 12 3 16 -11 18 -78 4 -128 12 -123 -188
-123 -97 0 -171 4 -175 10 -3 5 -12 7 -20 3 -8 -3 -15 -1 -15 5 0 5 -18 12
-39 16 -22 3 -59 21 -83 39 -42 32 -91 102 -85 122 9 27 151 31 268 9z"/>
<path d="M4303 917 l-73 -42 0 -217 0 -218 150 0 150 0 0 218 0 218 -72 39
c-40 22 -75 41 -78 42 -3 2 -38 -16 -77 -40z m148 -14 c91 -49 92 -68 9 -118
l-60 -36 0 -79 c0 -69 3 -81 20 -90 30 -16 24 -44 -13 -62 -31 -15 -36 -15
-60 0 -32 20 -35 42 -7 60 17 10 20 23 20 91 l0 79 -57 34 c-82 48 -82 66 4
117 37 23 70 41 72 41 2 0 35 -17 72 -37z m-111 -165 c0 -5 -22 -8 -50 -8
l-50 0 0 36 0 35 50 -28 c27 -15 50 -31 50 -35z m180 22 c0 -30 0 -30 -57 -30
l-58 0 45 30 c58 37 70 37 70 0z m-170 -105 c0 -44 -4 -56 -20 -65 -13 -7 -20
-21 -20 -39 0 -22 8 -32 35 -46 32 -18 36 -18 70 -2 30 14 35 22 35 51 0 25
-5 35 -20 39 -17 4 -20 14 -20 61 l0 56 55 0 55 0 0 -125 0 -125 -124 0 c-68
0 -131 -3 -140 -6 -14 -5 -16 10 -16 125 l0 131 55 0 55 0 0 -55z"/>
<path d="M825 696 c-123 -53 -123 -240 -2 -300 47 -23 94 -16 138 21 89 75 75
224 -26 273 -48 23 -68 24 -110 6z"/>
<path d="M1380 545 l0 -168 43 7 c46 7 80 28 110 68 28 37 28 149 0 186 -30
40 -64 61 -110 68 l-43 7 0 -168z"/>
<path d="M2852 568 c-12 -42 -22 -80 -22 -86 0 -5 20 -9 45 -10 28 0 45 4 45
11 0 7 -10 46 -23 87 l-23 74 -22 -76z"/>
<path d="M4230 266 c0 -11 121 -91 150 -99 4 -1 39 16 78 38 46 26 72 46 72
58 0 15 -14 17 -150 17 -123 0 -150 -3 -150 -14z m280 -3 c0 -5 -29 -25 -64
-45 l-64 -38 -71 41 c-39 22 -71 43 -71 45 0 2 61 4 135 4 74 0 135 -3 135 -7z"/>
<path d="M4677 889 c7 -7 15 -10 18 -7 3 3 -2 9 -12 12 -14 6 -15 5 -6 -5z"/>
</g>
</svg>
