<svg version="1.1" id="Layer_1" xmlns="http://www.w3.org/2000/svg" xmlns:xlink="http://www.w3.org/1999/xlink" x="0px" y="0px"
	 width="100%" viewBox="0 0 475 105" enable-background="new 0 0 475 105" xml:space="preserve">
<path fill="#B0C6DB" opacity="1.000000" stroke="none" 
	d="
M1.000000,3.000000 
	C1.332278,2.333333 1.545780,1.216219 2.020818,1.090959 
	C3.110490,0.803629 4.327705,1.000000 5.493141,1.000000 
	C139.018753,1.000000 272.544373,1.000000 406.531555,1.248788 
	C406.993164,1.497577 406.968262,1.994577 406.506866,2.060358 
	C404.545837,2.149165 403.046234,2.192357 401.546600,2.192348 
	C270.386658,2.191496 139.226700,2.183451 8.066755,2.218120 
	C5.983500,2.218671 3.900384,2.740552 1.613231,3.000307 
	C1.409260,2.981468 1.000000,3.000000 1.000000,3.000000 
z"/>
<path fill="#6D95B8" opacity="1.000000" stroke="none" 
	d="
M407.000000,106.000000 
	C272.309998,106.000000 137.620010,106.000000 2.477751,105.727982 
	C2.032527,105.274559 2.039577,105.093147 2.507550,104.956802 
	C106.182770,105.000877 209.397064,104.986603 312.611359,105.006882 
	C344.072632,105.013062 375.533936,105.114342 406.996521,105.379044 
	C406.997803,105.586029 407.000000,106.000000 407.000000,106.000000 
z"/>
<path fill="#138C44" opacity="1.000000" stroke="none" 
	d="
M474.000000,1.000001 
	C474.000000,1.000000 474.500000,1.000000 474.621155,1.321945 
	C474.771484,2.099262 474.800690,2.554635 474.722534,3.113914 
	C474.477966,3.522797 474.545258,3.781591 474.884460,4.458903 
	C474.907745,33.286835 474.863647,61.650066 474.651733,90.193909 
	C474.325836,90.829796 474.167816,91.285072 473.702637,91.785988 
	C472.981537,91.832436 472.567596,91.833244 472.065735,91.385109 
	C471.918030,89.117569 472.018097,87.276466 471.765625,85.485039 
	C471.230743,81.689667 470.511993,77.920204 469.902222,73.814117 
	C469.982788,72.833603 470.029816,72.179100 470.381287,71.375748 
	C471.898132,69.753250 473.470978,68.192039 469.892395,67.557388 
	C469.905945,66.568207 469.901367,65.908394 470.119385,65.164825 
	C470.648193,64.968552 470.884338,64.771957 471.347076,64.150406 
	C471.311066,55.560123 470.978424,47.310738 470.951172,38.809177 
	C471.802063,31.347902 472.347565,24.138798 472.912140,16.470692 
	C472.902344,11.607295 472.873474,7.202900 472.913696,2.623132 
	C472.982758,2.447759 473.074799,2.082183 473.338623,1.976386 
	C473.734985,1.580393 473.867493,1.290197 474.000000,1.000001 
z"/>
<path fill="#EFF5F1" opacity="1.000000" stroke="none" 
	d="
M474.819580,90.013298 
	C474.863647,61.650066 474.907745,33.286835 474.951111,4.213681 
	C474.910248,3.339174 474.870087,3.174590 474.829895,3.010007 
	C474.800690,2.554635 474.771484,2.099262 474.871155,1.321942 
	C475.333344,2.333328 475.955627,3.666200 475.957733,5.000062 
	C476.011414,38.666649 476.000000,72.333336 475.475464,105.725830 
	C474.920807,105.270653 474.890656,105.089638 474.915222,104.453995 
	C474.920654,99.972748 474.871429,95.946136 474.895416,91.604698 
	C474.918945,90.864349 474.869263,90.438828 474.819580,90.013298 
z"/>
<path fill="#8EB9D4" opacity="1.000000" stroke="none" 
	d="
M2.046627,104.911743 
	C2.039577,105.093147 2.032527,105.274559 2.012738,105.727982 
	C1.666667,104.673706 1.044462,103.347900 1.042271,102.021057 
	C0.988277,69.326546 1.000000,36.631920 1.000000,3.468657 
	C1.000000,3.000000 1.409260,2.981468 1.725391,2.996476 
	C2.041523,3.011484 2.265950,3.009406 2.181232,3.238923 
	C2.096515,3.468441 2.092594,3.957733 2.029921,4.425486 
	C1.993896,33.595860 2.020543,62.298477 2.004169,91.462509 
	C1.981150,95.937302 2.001153,99.950684 1.991074,104.201973 
	C1.960992,104.439873 2.046627,104.911743 2.046627,104.911743 
z"/>
<path fill="#6C92B3" opacity="1.000000" stroke="none" 
	d="
M474.860535,104.908630 
	C474.890656,105.089638 474.920807,105.270653 474.975464,105.725830 
	C452.645782,106.000000 430.291534,106.000000 407.468658,106.000000 
	C407.000000,106.000000 406.997803,105.586029 407.250244,105.293480 
	C407.672363,104.945557 407.841980,104.890182 408.476868,104.887772 
	C430.597107,104.915359 452.252075,104.889984 474.144653,104.892212 
	C474.382263,104.919807 474.860535,104.908630 474.860535,104.908630 
z"/>
<path fill="#BDDABC" opacity="1.000000" stroke="none" 
	d="
M473.531342,1.000001 
	C473.867493,1.290197 473.734985,1.580393 472.919434,1.948649 
	C471.132629,2.164395 470.028870,2.302079 468.473206,2.421544 
	C464.984650,2.544483 461.948029,2.685642 458.468567,2.695791 
	C452.008911,2.658882 445.992157,2.752981 439.537720,2.709977 
	C435.462036,2.529923 431.824036,2.486975 427.746704,2.298846 
	C425.478790,2.251418 423.650146,2.349170 421.373169,2.447447 
	C417.058350,2.463341 413.191833,2.478709 408.976135,2.360801 
	C408.137177,2.252316 407.647461,2.277107 407.093750,2.235299 
	C407.029785,2.168699 406.968262,1.994577 406.968262,1.994577 
	C406.968262,1.994577 406.993164,1.497577 406.996582,1.248788 
	C429.020905,1.000000 451.041779,1.000000 473.531342,1.000001 
z"/>
<path fill="#2372AE" opacity="1.000000" stroke="none" 
	d="
M2.047191,91.001099 
	C2.020543,62.298477 1.993896,33.595860 2.147198,4.338816 
	C2.513734,3.525239 2.493335,3.266910 2.265950,3.009406 
	C2.265950,3.009406 2.041523,3.011484 1.929363,3.015315 
	C3.900384,2.740552 5.983500,2.218671 8.066755,2.218120 
	C139.226700,2.183451 270.386658,2.191496 401.546600,2.192348 
	C403.046234,2.192357 404.545837,2.149165 406.506866,2.060358 
	C406.968262,1.994577 407.029785,2.168699 407.124451,2.448416 
	C407.219116,2.728134 407.418030,3.112109 407.307892,3.326405 
	C407.197754,3.540702 406.972137,3.966480 406.605591,4.114975 
	C405.832397,5.116776 405.057556,5.977045 405.073578,6.822365 
	C405.380920,23.068621 405.601227,39.320621 406.278351,55.553131 
	C406.466644,60.066643 408.064941,64.521332 409.026917,69.401024 
	C411.028442,74.860344 413.019501,79.921646 414.945312,85.323395 
	C411.546478,88.321480 407.810791,90.611786 404.970703,93.720337 
	C400.378479,98.746628 394.912964,100.070808 388.398071,100.065994 
	C265.475403,99.975143 142.552582,99.999107 19.629808,99.998840 
	C18.297321,99.998833 16.962616,100.043938 15.632756,99.983757 
	C11.364828,99.790619 8.018068,98.265076 5.947602,94.155502 
	C5.261899,92.794472 3.381416,92.035393 2.047191,91.001099 
M13.321357,64.147041 
	C12.549947,65.633987 11.192881,67.090630 11.114076,68.613411 
	C10.850132,73.713768 10.842143,78.848083 11.104838,83.950417 
	C11.570979,93.004257 11.684087,92.998840 21.084618,92.999260 
	C31.685888,92.999733 42.287159,92.999352 52.888432,92.999390 
	C62.988247,92.999428 73.088066,92.999573 83.187881,92.999580 
	C185.338409,92.999626 287.488922,92.999695 389.639465,92.999336 
	C390.972565,92.999329 392.309418,93.057182 393.638153,92.979553 
	C399.148682,92.657661 406.842163,82.892227 405.850616,77.463219 
	C403.990570,67.278725 401.437988,57.166946 400.401978,46.900944 
	C399.379547,36.769302 399.764160,26.484209 399.772827,16.266640 
	C399.775604,13.025383 399.058929,10.438560 395.705872,9.853731 
	C392.655701,9.321736 389.476990,9.414938 386.356110,9.433661 
	C383.544067,9.450533 380.730225,9.927366 377.923218,9.875172 
	C368.538452,9.700666 359.155457,9.133794 349.773560,9.170523 
	C334.105530,9.231861 318.438568,9.864413 302.771667,9.845254 
	C287.054688,9.826035 271.339172,9.168191 255.621231,9.065373 
	C248.823898,9.020907 242.019806,9.978980 235.222702,9.930605 
	C223.453751,9.846845 211.689392,9.250869 199.920090,9.030997 
	C192.489197,8.892175 185.052719,9.027352 177.618973,9.076656 
	C173.675598,9.102811 169.733002,9.230891 165.789627,9.273444 
	C149.855698,9.445384 133.921722,9.614474 117.987442,9.748118 
	C116.029999,9.764535 114.069038,9.450456 112.112595,9.480098 
	C106.016289,9.572458 99.918846,9.942204 93.826538,9.859356 
	C85.588173,9.747327 77.355827,9.135007 69.117935,9.059222 
	C53.992264,8.920074 38.864376,8.994966 23.737547,9.033021 
	C20.918467,9.040112 18.071121,9.089550 15.288662,9.484585 
	C11.904389,9.965063 10.607260,11.898257 11.250979,15.519138 
	C11.729340,18.209879 11.076241,21.081612 11.309364,23.840427 
	C11.753561,29.097137 9.442698,34.899734 14.114551,40.123596 
	C11.509498,48.071815 12.032277,56.023582 13.321357,64.147041 
z"/>
<path fill="#064E88" opacity="1.000000" stroke="none" 
	d="
M408.011627,104.834808 
	C407.841980,104.890182 407.672363,104.945557 407.248962,105.086494 
	C375.533936,105.114342 344.072632,105.013062 312.611359,105.006882 
	C209.397064,104.986603 106.182770,105.000877 2.507550,104.956802 
	C2.046627,104.911743 1.960992,104.439873 2.457781,104.184486 
	C87.949524,103.936859 172.944473,103.957016 257.939423,103.947594 
	C306.935913,103.942162 355.932404,103.888908 405.312683,103.888351 
	C406.466003,103.951210 407.235535,103.982903 408.006104,104.219650 
	C408.007172,104.424706 408.011627,104.834808 408.011627,104.834808 
z"/>
<path fill="#F2F6F6" opacity="1.000000" stroke="none" 
	d="
M469.868683,74.140114 
	C470.511993,77.920204 471.230743,81.689667 471.765625,85.485039 
	C472.018097,87.276466 471.918030,89.117569 471.891907,91.611664 
	C471.506958,92.764893 471.207886,93.242615 470.536621,93.667282 
	C467.616180,93.159554 465.077087,92.376213 462.518158,92.305031 
	C448.802307,91.923470 434.880981,93.565102 421.590729,87.521271 
	C420.665466,86.719215 419.906372,86.218124 419.147217,85.775177 
	C419.147186,85.833313 419.261902,85.814201 419.086395,85.522346 
	C416.554504,81.784409 414.198090,78.338326 411.426270,74.284706 
	C414.016998,73.642853 415.277679,73.326416 416.540436,73.018318 
	C426.220856,70.656410 435.563568,73.538155 445.425690,74.929245 
	C453.852417,74.716469 461.860535,74.428291 469.868683,74.140114 
M423.929993,78.730881 
	C424.018524,79.440620 424.107025,80.150360 424.489807,81.467247 
	C428.746887,83.956360 432.962128,86.522385 437.292328,88.877014 
	C438.293823,89.421585 440.009430,89.794708 440.848297,89.305954 
	C445.325684,86.697311 449.629120,83.790085 454.057709,80.130295 
	C454.598236,76.763763 452.255798,77.353928 449.855835,77.169769 
	C449.533661,77.243553 449.211517,77.317329 447.967834,77.344688 
	C440.706024,77.358208 433.444183,77.371719 425.563568,77.151993 
	C425.071136,77.442284 424.578735,77.732582 423.929993,78.730881 
z"/>
<path fill="#17619B" opacity="1.000000" stroke="none" 
	d="
M470.908783,93.720322 
	C471.207886,93.242615 471.506958,92.764893 471.979858,92.060608 
	C472.567596,91.833244 472.981537,91.832436 473.901550,91.849937 
	C474.407654,91.868248 474.822205,91.919518 474.822205,91.919518 
	C474.871429,95.946136 474.920654,99.972748 474.915222,104.453995 
	C474.860535,104.908630 474.382263,104.919807 473.813812,104.659988 
	C471.768524,104.260872 470.291748,104.001572 468.814819,104.000397 
	C448.544891,103.984314 428.274963,104.003822 408.005035,104.014587 
	C407.235535,103.982903 406.466003,103.951210 405.395508,103.567078 
	C410.774872,94.879990 418.867645,90.613029 425.799652,92.470123 
	C439.979828,96.268997 454.448822,94.747490 468.826080,94.877274 
	C469.516754,94.883514 470.214386,94.123497 470.908783,93.720322 
z"/>
<path fill="#1E9D47" opacity="1.000000" stroke="none" 
	d="
M439.975403,2.847084 
	C445.992157,2.752981 452.008911,2.658882 458.495850,3.023900 
	C460.960358,11.102170 466.502625,16.453287 472.893036,16.929691 
	C472.347565,24.138798 471.802063,31.347902 470.731689,38.497784 
	C468.776764,34.308491 467.346741,30.178419 465.891266,25.704239 
	C465.871399,24.670271 465.876953,23.980410 465.877136,22.902777 
	C465.047882,21.897070 464.223969,21.279135 463.377289,20.651892 
	C463.354523,20.642584 463.355835,20.593422 463.448853,20.221600 
	C462.746796,18.118057 462.222443,16.184177 461.107605,14.691228 
	C457.249054,9.524024 451.582581,7.440766 445.588562,5.838776 
	C443.593506,5.305558 441.839569,3.870087 439.975403,2.847084 
z"/>
<path fill="#D4E0E8" opacity="1.000000" stroke="none" 
	d="
M469.874207,67.886749 
	C473.470978,68.192039 471.898132,69.753250 469.997803,71.259857 
	C463.211670,71.844376 457.113403,72.395935 450.667908,72.820877 
	C449.592926,72.719208 448.865143,72.744156 447.739899,72.650566 
	C436.565521,72.066772 425.784790,71.667572 415.016510,71.051552 
	C413.690247,70.975677 412.430145,69.742424 411.405334,68.999268 
	C412.127808,68.688431 412.584381,68.423820 413.353302,68.145294 
	C414.200897,67.855194 414.736145,67.579018 415.285095,67.347778 
	C415.298798,67.392731 415.384094,67.432152 415.827667,67.385651 
	C422.865448,67.530571 429.511414,67.273308 436.040924,68.025955 
	C444.375061,68.986610 452.576630,71.054810 461.044647,69.026237 
	C463.914154,68.338821 466.926910,68.249428 469.874207,67.886749 
z"/>
<path fill="#2DA44C" opacity="1.000000" stroke="none" 
	d="
M472.912140,16.470692 
	C466.502625,16.453287 460.960358,11.102170 458.938721,3.154910 
	C461.948029,2.685642 464.984650,2.544483 468.769470,2.575103 
	C470.626648,2.764091 471.735626,2.781298 472.844604,2.798505 
	C472.873474,7.202900 472.902344,11.607295 472.912140,16.470692 
z"/>
<path fill="#165A91" opacity="1.000000" stroke="none" 
	d="
M469.892395,67.557388 
	C466.926910,68.249428 463.914154,68.338821 461.044647,69.026237 
	C452.576630,71.054810 444.375061,68.986610 436.040924,68.025955 
	C429.511414,67.273308 422.865448,67.530571 415.734161,67.037590 
	C415.132935,66.505371 415.068787,66.274704 415.398346,65.972702 
	C421.483856,65.373383 427.175659,64.845406 432.873779,64.551361 
	C433.078369,65.009789 433.276703,65.234291 433.474976,65.458786 
	C433.702515,65.115959 433.930054,64.773132 434.438416,64.431473 
	C435.077179,64.534340 435.435089,64.636047 435.896576,64.945496 
	C436.669800,65.099449 437.339478,65.045670 438.397278,64.987854 
	C439.789581,65.207932 440.793701,65.432053 441.885376,65.877281 
	C442.648682,66.093719 443.324432,66.089035 444.360718,66.081970 
	C445.435822,66.169228 446.150421,66.258858 447.043945,66.673813 
	C454.158875,66.257927 461.094910,65.516724 468.349213,64.724533 
	C469.096039,64.695503 469.524628,64.717476 469.895081,64.861855 
	C469.836945,64.984261 469.896790,65.248581 469.896790,65.248581 
	C469.901367,65.908394 469.905945,66.568207 469.892395,67.557388 
z"/>
<path fill="#8BBE8C" opacity="1.000000" stroke="none" 
	d="
M465.916687,26.048347 
	C467.346741,30.178419 468.776764,34.308491 470.426270,38.749954 
	C470.978424,47.310738 471.311066,55.560123 471.284607,64.050598 
	C470.925537,64.291679 470.801880,64.091278 470.873413,63.678635 
	C469.268829,50.860107 467.592743,38.454227 465.916687,26.048347 
z"/>
<path fill="#306996" opacity="1.000000" stroke="none" 
	d="
M451.015106,72.947495 
	C457.113403,72.395935 463.211670,71.844376 469.693420,71.408699 
	C470.029816,72.179100 469.982788,72.833603 469.902222,73.814117 
	C461.860535,74.428291 453.852417,74.716469 445.724426,74.725418 
	C446.547363,74.257301 447.490143,74.068405 448.710663,73.859154 
	C449.664001,73.541695 450.339539,73.244598 451.015106,72.947495 
z"/>
<path fill="#70B575" opacity="1.000000" stroke="none" 
	d="
M472.913666,2.623132 
	C471.735626,2.781298 470.626648,2.764091 469.221436,2.593324 
	C470.028870,2.302079 471.132629,2.164395 472.655579,2.054446 
	C473.074799,2.082183 472.982758,2.447759 472.913666,2.623132 
z"/>
<path fill="#228A4E" opacity="1.000000" stroke="none" 
	d="
M474.895416,91.604698 
	C474.822205,91.919518 474.407654,91.868248 474.208740,91.804298 
	C474.167816,91.285072 474.325836,90.829796 474.651733,90.193909 
	C474.869263,90.438828 474.918945,90.864349 474.895416,91.604698 
z"/>
<path fill="#228A4E" opacity="1.000000" stroke="none" 
	d="
M474.722565,3.113913 
	C474.870087,3.174590 474.910248,3.339174 474.883728,3.748979 
	C474.545258,3.781591 474.477966,3.522797 474.722565,3.113913 
z"/>
<path fill="#5B8EB9" opacity="1.000000" stroke="none" 
	d="
M470.987976,64.391487 
	C470.884338,64.771957 470.648193,64.968552 470.119385,65.164825 
	C469.896790,65.248581 469.836945,64.984261 470.000641,64.712051 
	C470.389801,64.347328 470.602325,64.231140 470.801880,64.091278 
	C470.801880,64.091278 470.925537,64.291679 470.987976,64.391487 
z"/>
<path fill="#246FA9" opacity="1.000000" stroke="none" 
	d="
M470.536621,93.667274 
	C470.214386,94.123497 469.516754,94.883514 468.826080,94.877274 
	C454.448822,94.747490 439.979828,96.268997 425.799652,92.470123 
	C418.867645,90.613029 410.774872,94.879990 405.011719,103.535904 
	C355.932404,103.888908 306.935913,103.942162 257.939423,103.947594 
	C172.944473,103.957016 87.949524,103.936859 2.487864,103.946587 
	C2.001153,99.950684 1.981150,95.937302 2.004169,91.462509 
	C3.381416,92.035393 5.261899,92.794472 5.947602,94.155502 
	C8.018068,98.265076 11.364828,99.790619 15.632756,99.983757 
	C16.962616,100.043938 18.297321,99.998833 19.629808,99.998840 
	C142.552582,99.999107 265.475403,99.975143 388.398071,100.065994 
	C394.912964,100.070808 400.378479,98.746628 404.970703,93.720337 
	C407.810791,90.611786 411.546478,88.321480 415.279175,85.475067 
	C416.872833,85.462265 418.067352,85.638229 419.261902,85.814194 
	C419.261902,85.814201 419.147186,85.833313 419.205444,86.157066 
	C420.094757,86.927956 420.925812,87.375092 421.756897,87.822227 
	C434.880981,93.565102 448.802307,91.923470 462.518158,92.305031 
	C465.077087,92.376213 467.616180,93.159554 470.536621,93.667274 
z"/>
<path fill="#0D62A2" opacity="1.000000" stroke="none" 
	d="
M2.181232,3.238923 
	C2.493335,3.266910 2.513734,3.525239 2.209871,3.871063 
	C2.092594,3.957733 2.096515,3.468441 2.181232,3.238923 
z"/>
<path fill="#05477F" opacity="1.000000" stroke="none" 
	d="
M408.006104,104.219650 
	C428.274963,104.003822 448.544891,103.984314 468.814819,104.000397 
	C470.291748,104.001572 471.768524,104.260872 473.576233,104.632385 
	C452.252075,104.889984 430.597107,104.915359 408.476868,104.887772 
	C408.011627,104.834808 408.007172,104.424706 408.006104,104.219650 
z"/>
<path fill="#138744" opacity="1.000000" stroke="none" 
	d="
M439.537720,2.709979 
	C441.839569,3.870087 443.593506,5.305558 445.588562,5.838776 
	C451.582581,7.440766 457.249054,9.524024 461.107605,14.691228 
	C462.222443,16.184177 462.746796,18.118057 463.241425,19.965324 
	C458.717773,13.869837 452.684937,9.968536 445.459564,9.166561 
	C432.846893,7.766637 420.133545,7.274346 407.370544,5.998131 
	C407.176544,5.051887 407.074341,4.509182 406.972137,3.966479 
	C406.972137,3.966480 407.197754,3.540702 407.468292,3.335537 
	C407.738831,3.130372 408.060486,3.186956 408.165466,3.283215 
	C408.270416,3.379474 408.681091,3.405730 408.681091,3.405730 
	C408.681091,3.405730 409.028534,3.163884 409.126770,3.007076 
	C409.224976,2.850267 409.325348,2.494078 409.325348,2.494078 
	C413.191833,2.478709 417.058350,2.463341 421.696411,2.616157 
	C424.374023,2.670903 426.279999,2.557464 428.186005,2.444026 
	C431.824036,2.486975 435.462036,2.529923 439.537720,2.709979 
z"/>
<path fill="#70B575" opacity="1.000000" stroke="none" 
	d="
M427.746704,2.298846 
	C426.279999,2.557464 424.374023,2.670903 422.144775,2.615632 
	C423.650146,2.349170 425.478790,2.251418 427.746704,2.298846 
z"/>
<path fill="#70B575" opacity="1.000000" stroke="none" 
	d="
M408.976135,2.360801 
	C409.325348,2.494078 409.224976,2.850267 408.883972,2.980492 
	C408.542938,3.110717 408.060486,3.186956 408.060486,3.186956 
	C408.060486,3.186956 407.738831,3.130372 407.578430,3.121240 
	C407.418030,3.112109 407.219116,2.728134 407.188416,2.515017 
	C407.647461,2.277107 408.137177,2.252316 408.976135,2.360801 
z"/>
<path fill="#2776B3" opacity="1.000000" stroke="none" 
	d="
M14.179472,39.366428 
	C9.442698,34.899734 11.753561,29.097137 11.309364,23.840427 
	C11.076241,21.081612 11.729340,18.209879 11.250979,15.519138 
	C10.607260,11.898257 11.904389,9.965063 15.288662,9.484585 
	C18.071121,9.089550 20.918467,9.040112 23.737547,9.033021 
	C38.864376,8.994966 53.992264,8.920074 69.117935,9.059222 
	C77.355827,9.135007 85.588173,9.747327 93.826538,9.859356 
	C99.918846,9.942204 106.016289,9.572458 112.112595,9.480098 
	C114.069038,9.450456 116.029999,9.764535 117.987442,9.748118 
	C133.921722,9.614474 149.855698,9.445384 165.789627,9.273444 
	C169.733002,9.230891 173.675598,9.102811 177.618973,9.076656 
	C185.052719,9.027352 192.489197,8.892175 199.920090,9.030997 
	C211.689392,9.250869 223.453751,9.846845 235.222702,9.930605 
	C242.019806,9.978980 248.823898,9.020907 255.621231,9.065373 
	C271.339172,9.168191 287.054688,9.826035 302.771667,9.845254 
	C318.438568,9.864413 334.105530,9.231861 349.773560,9.170523 
	C359.155457,9.133794 368.538452,9.700666 377.923218,9.875172 
	C380.730225,9.927366 383.544067,9.450533 386.356110,9.433661 
	C389.476990,9.414938 392.655701,9.321736 395.705872,9.853731 
	C399.058929,10.438560 399.775604,13.025383 399.772827,16.266640 
	C399.764160,26.484209 399.379547,36.769302 400.401978,46.900944 
	C401.437988,57.166946 403.990570,67.278725 405.850616,77.463219 
	C406.842163,82.892227 399.148682,92.657661 393.638153,92.979553 
	C392.309418,93.057182 390.972565,92.999329 389.639465,92.999336 
	C287.488922,92.999695 185.338409,92.999626 83.187881,92.999580 
	C73.088066,92.999573 62.988247,92.999428 52.888432,92.999390 
	C42.287159,92.999352 31.685888,92.999733 21.084618,92.999260 
	C11.684087,92.998840 11.570979,93.004257 11.104838,83.950417 
	C10.842143,78.848083 10.850132,73.713768 11.114076,68.613411 
	C11.192881,67.090630 12.549947,65.633987 13.955025,64.293503 
	C21.571115,79.319946 35.806019,86.043175 49.687351,80.857895 
	C50.944118,80.388443 52.606525,78.868736 52.682148,77.742828 
	C53.011574,72.838417 52.823673,67.899269 52.823673,62.729477 
	C42.058243,68.964592 35.279900,68.873268 30.266298,62.688183 
	C25.354414,56.628593 25.551344,45.916004 30.684732,39.926144 
	C35.887474,33.855362 42.505501,33.899956 52.836006,40.379192 
	C52.836006,37.501141 52.835510,34.907196 52.836098,32.313251 
	C52.838394,22.162769 51.326427,20.616199 40.972336,20.288582 
	C39.816559,20.252010 38.645218,20.373808 37.495556,20.529167 
	C25.920731,22.093334 18.933790,29.351564 14.179472,39.366428 
M108.495399,27.996960 
	C101.100952,21.276407 92.497719,18.502661 82.668076,20.650190 
	C61.910934,25.185099 52.643288,49.496262 64.092804,69.084534 
	C74.855545,87.497833 101.534790,87.824677 112.765205,69.680809 
	C120.867867,56.590145 119.345512,39.928310 108.495399,27.996960 
M124.974625,29.573769 
	C124.974625,46.637997 124.974625,63.702229 124.974625,80.988213 
	C131.796753,80.988213 137.782394,81.016037 143.767715,80.982651 
	C157.895294,80.903847 169.043152,70.718361 171.035645,56.103302 
	C173.128204,40.754211 164.684616,25.867823 150.921722,23.031359 
	C142.647278,21.326036 133.880157,22.011148 124.975754,21.605658 
	C124.975754,24.644655 124.975754,26.619871 124.974625,29.573769 
M265.502838,66.994896 
	C263.992981,71.499947 262.483093,76.004997 260.812225,80.990440 
	C265.169220,80.990440 268.847107,81.246765 272.455963,80.859673 
	C273.829254,80.712372 275.953827,79.264534 276.179718,78.105972 
	C277.414246,71.774475 281.078552,69.712746 287.124359,70.808098 
	C288.414307,71.041801 289.812439,71.021851 291.110016,70.809151 
	C296.211487,69.972893 299.236572,71.652641 300.153015,77.097809 
	C300.396790,78.546440 302.298279,80.628967 303.649292,80.805107 
	C307.511932,81.308716 311.482788,80.982269 315.770416,80.982269 
	C315.242889,79.112190 314.940552,77.831238 314.522217,76.589348 
	C309.477875,61.613682 304.409912,46.645958 299.361572,31.671623 
	C296.046692,21.839211 296.054199,21.992672 285.470001,21.840902 
	C282.047577,21.791830 280.578003,22.820587 279.504608,26.116747 
	C275.126556,39.560196 270.398499,52.889648 265.502838,66.994896 
M337.734558,34.080410 
	C341.791168,34.437775 345.847748,34.795143 350.857635,35.236488 
	C351.959991,32.845215 353.655029,29.168261 355.921631,24.251474 
	C349.982422,22.807570 344.821594,20.891661 339.530853,20.413414 
	C330.381714,19.586399 322.801361,26.120306 321.147247,35.285690 
	C319.128510,46.471535 322.413544,52.474583 332.407227,56.034653 
	C335.213135,57.034199 338.189209,57.869194 340.621155,59.482334 
	C341.977753,60.382195 343.260315,62.897442 342.975800,64.377022 
	C342.639984,66.123611 340.717072,68.670563 339.230560,68.856285 
	C336.291199,69.223534 333.069366,68.552940 330.174896,67.642166 
	C328.114807,66.993942 326.399170,65.250999 324.300659,63.842854 
	C322.314087,68.023651 320.488770,71.865112 318.614105,75.810448 
	C326.146515,81.589790 334.045227,83.803421 342.888702,81.955185 
	C351.762024,80.100708 356.882416,73.641037 357.664429,63.651432 
	C358.398071,54.279942 354.737030,48.667065 345.688995,45.312302 
	C343.352051,44.445820 340.901733,43.814484 338.684113,42.711899 
	C334.518494,40.640785 334.176849,38.435059 337.734558,34.080410 
M256.824524,50.348965 
	C260.344604,41.080215 263.864716,31.811466 267.479218,22.294094 
	C266.191650,22.115595 265.554108,21.969358 264.912231,21.946798 
	C252.811462,21.521517 252.830658,21.531445 248.788986,32.880054 
	C245.977127,40.775478 243.103134,48.648781 239.837753,57.692921 
	C235.792603,46.265388 232.263611,36.104935 228.550339,26.012268 
	C227.994339,24.501078 226.690323,22.282412 225.533371,22.151663 
	C221.376999,21.681942 217.135284,21.967342 212.159409,21.967342 
	C219.797577,42.257839 227.081314,61.606792 234.375290,80.982941 
	C236.197586,80.982941 237.548767,80.806786 238.838089,81.014557 
	C243.508972,81.767250 245.924789,79.991875 247.419495,75.327301 
	C250.052155,67.111542 253.452286,59.141708 256.824524,50.348965 
M182.767395,80.993385 
	C191.205307,80.993385 199.643219,80.993385 208.244049,80.993385 
	C208.244049,76.419304 208.244049,72.375816 208.244049,67.861908 
	C202.771378,67.861908 197.684372,67.861908 192.530823,67.861908 
	C192.530823,64.321686 192.530823,61.268467 192.530823,57.763298 
	C197.638275,57.763298 202.400665,57.763298 207.375488,57.763298 
	C207.375488,53.266457 207.375488,49.230850 207.375488,44.765530 
	C202.248672,44.765530 197.478821,44.765530 192.568817,44.765530 
	C192.568817,41.297871 192.568817,38.272621 192.568817,34.782288 
	C198.038345,34.782288 203.116501,34.782288 208.213440,34.782288 
	C208.213440,30.268684 208.213440,26.233789 208.213440,22.134613 
	C198.189880,22.134613 188.586395,22.134613 178.430084,22.134613 
	C178.430084,41.101837 178.387955,59.859726 178.574265,78.615341 
	C178.582260,79.419144 180.700806,80.201973 182.767395,80.993385 
M364.963593,41.500450 
	C364.963593,54.574883 364.963593,67.649315 364.963593,80.564453 
	C369.994751,80.564453 374.215637,80.564453 379.031189,80.564453 
	C379.031189,72.772705 379.031189,65.381218 379.031189,57.570641 
	C384.228302,57.570641 388.817017,57.570641 393.496887,57.570641 
	C393.496887,53.195461 393.496887,49.281780 393.496887,44.762455 
	C388.488098,44.762455 383.762665,44.762455 379.060974,44.762455 
	C379.060974,41.228207 379.060974,38.307724 379.060974,34.930779 
	C384.453552,34.930779 389.544922,34.930779 394.865662,34.930779 
	C394.865662,30.419409 394.865662,26.380348 394.865662,22.269306 
	C384.805237,22.269306 375.082062,22.269306 364.963379,22.269306 
	C364.963379,28.570883 364.963379,34.535789 364.963593,41.500450 
z"/>
<path fill="#F8FBFC" opacity="1.000000" stroke="none" 
	d="
M14.147011,39.745010 
	C18.933790,29.351564 25.920731,22.093334 37.495556,20.529167 
	C38.645218,20.373808 39.816559,20.252010 40.972336,20.288582 
	C51.326427,20.616199 52.838394,22.162769 52.836098,32.313251 
	C52.835510,34.907196 52.836006,37.501141 52.836006,40.379192 
	C42.505501,33.899956 35.887474,33.855362 30.684732,39.926144 
	C25.551344,45.916004 25.354414,56.628593 30.266298,62.688183 
	C35.279900,68.873268 42.058243,68.964592 52.823673,62.729477 
	C52.823673,67.899269 53.011574,72.838417 52.682148,77.742828 
	C52.606525,78.868736 50.944118,80.388443 49.687351,80.857895 
	C35.806019,86.043175 21.571115,79.319946 14.338085,64.208527 
	C12.032277,56.023582 11.509498,48.071815 14.147011,39.745010 
z"/>
<path fill="#1D6199" opacity="1.000000" stroke="none" 
	d="
M406.605591,4.114975 
	C407.074341,4.509182 407.176544,5.051887 407.344208,6.446395 
	C408.031311,25.071978 408.928162,42.843128 409.097931,60.621223 
	C409.145538,65.608582 410.775848,66.685249 415.004639,66.044037 
	C415.068787,66.274704 415.132935,66.505371 415.290588,67.084091 
	C415.384094,67.432152 415.298798,67.392731 414.962952,67.317757 
	C414.098389,67.548264 413.569672,67.853745 413.040955,68.159218 
	C412.584381,68.423820 412.127808,68.688431 411.051453,68.988853 
	C409.959900,69.017456 409.488159,69.010231 409.016388,69.003006 
	C408.064941,64.521332 406.466644,60.066643 406.278351,55.553131 
	C405.601227,39.320621 405.380920,23.068621 405.073578,6.822365 
	C405.057556,5.977045 405.832397,5.116776 406.605591,4.114975 
z"/>
<path fill="#165A91" opacity="1.000000" stroke="none" 
	d="
M409.026917,69.401024 
	C409.488159,69.010231 409.959900,69.017456 410.785522,69.035088 
	C412.430145,69.742424 413.690247,70.975677 415.016510,71.051552 
	C425.784790,71.667572 436.565521,72.066772 447.772888,72.939133 
	C448.279816,73.523987 448.356354,73.701744 448.432892,73.879517 
	C447.490143,74.068405 446.547363,74.257301 445.305847,74.650009 
	C435.563568,73.538155 426.220856,70.656410 416.540436,73.018318 
	C415.277679,73.326416 414.016998,73.642853 411.426270,74.284706 
	C414.198090,78.338326 416.554504,81.784409 419.086395,85.522339 
	C418.067352,85.638229 416.872833,85.462265 415.344421,85.134628 
	C413.019501,79.921646 411.028442,74.860344 409.026917,69.401024 
z"/>
<path fill="#4D8CB8" opacity="1.000000" stroke="none" 
	d="
M453.992706,80.986145 
	C449.629120,83.790085 445.325684,86.697311 440.848297,89.305954 
	C440.009430,89.794708 438.293823,89.421585 437.292328,88.877014 
	C432.962128,86.522385 428.746887,83.956360 424.565247,80.946884 
	C424.768921,79.614311 424.897156,78.802109 425.257935,77.984337 
	C425.490509,77.978767 425.954865,78.007057 426.282593,78.263054 
	C433.838501,78.638176 441.073456,78.618980 448.290497,78.968666 
	C450.219299,79.062119 452.093445,80.282906 453.992706,80.986145 
M449.358429,79.831100 
	C442.242645,79.831100 435.126862,79.831100 426.777710,79.831100 
	C439.364624,88.256577 442.740936,88.157417 449.358429,79.831100 
z"/>
<path fill="#0D6AAA" opacity="1.000000" stroke="none" 
	d="
M454.025208,80.558220 
	C452.093445,80.282906 450.219299,79.062119 448.290497,78.968666 
	C441.073456,78.618980 433.838501,78.638176 426.381958,78.122864 
	C426.153595,77.726685 426.182373,77.385239 426.182373,77.385239 
	C433.444183,77.371719 440.706024,77.358208 448.651733,77.507492 
	C449.660431,77.580086 449.985229,77.489876 450.310059,77.399658 
	C452.255798,77.353928 454.598236,76.763763 454.025208,80.558220 
z"/>
<path fill="#0D6AAA" opacity="1.000000" stroke="none" 
	d="
M425.025391,77.989906 
	C424.897156,78.802109 424.768921,79.614311 424.418091,80.643311 
	C424.107025,80.150360 424.018524,79.440620 424.242859,78.369873 
	C424.555725,78.008858 425.025421,77.989906 425.025391,77.989906 
z"/>
<path fill="#165A91" opacity="1.000000" stroke="none" 
	d="
M421.590729,87.521271 
	C420.925812,87.375092 420.094757,86.927956 419.205475,86.098923 
	C419.906372,86.218124 420.665466,86.719215 421.590729,87.521271 
z"/>
<path fill="#5FA7CD" opacity="1.000000" stroke="none" 
	d="
M425.257965,77.984337 
	C425.025421,77.989906 424.555725,78.008858 424.321014,78.015869 
	C424.578735,77.732582 425.071136,77.442284 425.872986,77.268616 
	C426.182373,77.385239 426.153595,77.726685 426.054230,77.866867 
	C425.954865,78.007057 425.490509,77.978767 425.257965,77.984337 
z"/>
<path fill="#5FA7CD" opacity="1.000000" stroke="none" 
	d="
M450.082947,77.284714 
	C449.985229,77.489876 449.660431,77.580086 449.112488,77.530701 
	C449.211517,77.317329 449.533661,77.243553 450.082947,77.284714 
z"/>
<path fill="#F7F9FA" opacity="1.000000" stroke="none" 
	d="
M415.398346,65.972702 
	C410.775848,66.685249 409.145538,65.608582 409.097931,60.621223 
	C408.928162,42.843128 408.031311,25.071978 407.436035,6.849935 
	C420.133545,7.274346 432.846893,7.766637 445.459564,9.166561 
	C452.684937,9.968536 458.717773,13.869837 463.148407,20.337145 
	C463.355835,20.593422 463.354523,20.642584 463.505127,20.970634 
	C464.397949,21.962645 465.140228,22.626604 465.882507,23.290556 
	C465.876953,23.980410 465.871399,24.670271 465.891266,25.704239 
	C467.592743,38.454227 469.268829,50.860107 470.873413,63.678635 
	C470.602325,64.231140 470.389801,64.347328 470.058777,64.589645 
	C469.524628,64.717476 469.096039,64.695503 468.047119,64.487282 
	C460.572876,64.983521 453.718964,65.666008 446.865051,66.348495 
	C446.150421,66.258858 445.435822,66.169228 444.128906,65.889824 
	C442.957001,65.685432 442.377411,65.670799 441.797821,65.656166 
	C440.793701,65.432053 439.789581,65.207932 438.151672,64.817017 
	C436.942902,64.679390 436.367950,64.708572 435.792999,64.737755 
	C435.435089,64.636047 435.077179,64.534340 434.124634,64.303101 
	C433.309143,64.221519 433.088287,64.269478 432.867462,64.317429 
	C427.175659,64.845406 421.483856,65.373383 415.398346,65.972702 
M454.138458,18.268166 
	C453.243683,17.742706 452.348877,17.217247 450.970520,16.187523 
	C447.920837,14.509024 444.985107,12.543801 441.775299,11.268324 
	C440.071899,10.591472 437.583069,10.461335 435.990173,11.220413 
	C432.130157,13.059878 428.587402,15.565110 424.174408,18.298092 
	C424.174408,32.799442 424.174408,47.300793 424.174408,62.211491 
	C428.589569,62.211491 432.705078,62.308552 436.814270,62.188320 
	C442.707031,62.015900 448.595123,61.684940 454.640045,60.562073 
	C454.549133,49.367599 454.458252,38.173126 454.565430,26.259251 
	C454.497253,25.523018 454.429077,24.786783 454.601440,23.330566 
	C454.498688,21.848162 454.395935,20.365757 454.138458,18.268166 
z"/>
<path fill="#138744" opacity="1.000000" stroke="none" 
	d="
M465.877136,22.902784 
	C465.140228,22.626604 464.397949,21.962645 463.527893,20.979942 
	C464.223969,21.279135 465.047882,21.897070 465.877136,22.902784 
z"/>
<path fill="#4A82B2" opacity="1.000000" stroke="none" 
	d="
M448.710663,73.859146 
	C448.356354,73.701744 448.279816,73.523987 448.170349,73.057671 
	C448.865143,72.744156 449.592926,72.719208 450.667908,72.820885 
	C450.339539,73.244598 449.664001,73.541695 448.710663,73.859146 
z"/>
<path fill="#165A91" opacity="1.000000" stroke="none" 
	d="
M413.353302,68.145294 
	C413.569672,67.853745 414.098389,67.548264 414.949249,67.272812 
	C414.736145,67.579018 414.200897,67.855194 413.353302,68.145294 
z"/>
<path fill="#5B8EB9" opacity="1.000000" stroke="none" 
	d="
M447.043945,66.673813 
	C453.718964,65.666008 460.572876,64.983521 467.728882,64.538284 
	C461.094910,65.516724 454.158875,66.257927 447.043945,66.673813 
z"/>
<path fill="#5B8EB9" opacity="1.000000" stroke="none" 
	d="
M441.885376,65.877281 
	C442.377411,65.670799 442.957001,65.685432 443.768402,65.892204 
	C443.324432,66.089035 442.648682,66.093719 441.885376,65.877281 
z"/>
<path fill="#5B8EB9" opacity="1.000000" stroke="none" 
	d="
M435.896576,64.945496 
	C436.367950,64.708572 436.942902,64.679390 437.763489,64.821045 
	C437.339478,65.045670 436.669800,65.099449 435.896576,64.945496 
z"/>
<path fill="#5B8EB9" opacity="1.000000" stroke="none" 
	d="
M432.873779,64.551361 
	C433.088287,64.269478 433.309143,64.221519 433.843811,64.301941 
	C433.930054,64.773132 433.702515,65.115959 433.474976,65.458786 
	C433.276703,65.234291 433.078369,65.009789 432.873779,64.551361 
z"/>
<path fill="#1E9D47" opacity="1.000000" stroke="none" 
	d="
M408.165466,3.283215 
	C408.060486,3.186956 408.542938,3.110717 408.785736,3.137300 
	C409.028534,3.163884 408.681091,3.405730 408.681091,3.405730 
	C408.681091,3.405730 408.270416,3.379474 408.165466,3.283215 
z"/>
<path fill="#FAFCFC" opacity="1.000000" stroke="none" 
	d="
M108.748947,28.247751 
	C119.345512,39.928310 120.867867,56.590145 112.765205,69.680809 
	C101.534790,87.824677 74.855545,87.497833 64.092804,69.084534 
	C52.643288,49.496262 61.910934,25.185099 82.668076,20.650190 
	C92.497719,18.502661 101.100952,21.276407 108.748947,28.247751 
M95.462540,36.755272 
	C93.417862,36.150539 91.398468,35.147858 89.323753,35.016094 
	C83.229836,34.629082 78.735695,37.602295 75.867752,42.770660 
	C72.294670,49.209766 73.130684,55.682152 77.057152,61.630802 
	C82.739548,70.239693 94.138924,70.222496 100.094406,61.792606 
	C105.965919,53.481571 104.401154,43.748573 95.462540,36.755272 
z"/>
<path fill="#FAFCFC" opacity="1.000000" stroke="none" 
	d="
M124.975189,29.084429 
	C124.975754,26.619871 124.975754,24.644655 124.975754,21.605658 
	C133.880157,22.011148 142.647278,21.326036 150.921722,23.031359 
	C164.684616,25.867823 173.128204,40.754211 171.035645,56.103302 
	C169.043152,70.718361 157.895294,80.903847 143.767715,80.982651 
	C137.782394,81.016037 131.796753,80.988213 124.974625,80.988213 
	C124.974625,63.702229 124.974625,46.637997 124.975189,29.084429 
M138.792282,60.436317 
	C138.792282,62.873367 138.792282,65.310417 138.792282,67.869957 
	C145.875793,68.394348 151.592361,66.945068 154.734558,60.891804 
	C158.173141,54.267567 158.154175,47.294891 153.971313,40.930557 
	C150.516815,35.674412 145.232834,34.344395 138.793671,35.278713 
	C138.793671,43.536777 138.793671,51.495586 138.792282,60.436317 
z"/>
<path fill="#FAFCFC" opacity="1.000000" stroke="none" 
	d="
M265.651123,66.627998 
	C270.398499,52.889648 275.126556,39.560196 279.504608,26.116747 
	C280.578003,22.820587 282.047577,21.791830 285.470001,21.840902 
	C296.054199,21.992672 296.046692,21.839211 299.361572,31.671623 
	C304.409912,46.645958 309.477875,61.613682 314.522217,76.589348 
	C314.940552,77.831238 315.242889,79.112190 315.770416,80.982269 
	C311.482788,80.982269 307.511932,81.308716 303.649292,80.805107 
	C302.298279,80.628967 300.396790,78.546440 300.153015,77.097809 
	C299.236572,71.652641 296.211487,69.972893 291.110016,70.809151 
	C289.812439,71.021851 288.414307,71.041801 287.124359,70.808098 
	C281.078552,69.712746 277.414246,71.774475 276.179718,78.105972 
	C275.953827,79.264534 273.829254,80.712372 272.455963,80.859673 
	C268.847107,81.246765 265.169220,80.990440 260.812225,80.990440 
	C262.483093,76.004997 263.992981,71.499947 265.651123,66.627998 
M291.102478,58.981544 
	C291.913513,58.218155 293.543823,57.239910 293.408722,56.724632 
	C292.075043,51.639122 290.448486,46.630424 288.561432,40.480522 
	C286.861755,45.806103 285.496338,50.010735 284.185852,54.232433 
	C283.753998,55.623615 283.464233,57.058903 282.982269,58.981499 
	C285.656403,58.981499 287.944031,58.981499 291.102478,58.981544 
z"/>
<path fill="#F9FBFC" opacity="1.000000" stroke="none" 
	d="
M337.418243,34.294731 
	C334.176849,38.435059 334.518494,40.640785 338.684113,42.711899 
	C340.901733,43.814484 343.352051,44.445820 345.688995,45.312302 
	C354.737030,48.667065 358.398071,54.279942 357.664429,63.651432 
	C356.882416,73.641037 351.762024,80.100708 342.888702,81.955185 
	C334.045227,83.803421 326.146515,81.589790 318.614105,75.810448 
	C320.488770,71.865112 322.314087,68.023651 324.300659,63.842854 
	C326.399170,65.250999 328.114807,66.993942 330.174896,67.642166 
	C333.069366,68.552940 336.291199,69.223534 339.230560,68.856285 
	C340.717072,68.670563 342.639984,66.123611 342.975800,64.377022 
	C343.260315,62.897442 341.977753,60.382195 340.621155,59.482334 
	C338.189209,57.869194 335.213135,57.034199 332.407227,56.034653 
	C322.413544,52.474583 319.128510,46.471535 321.147247,35.285690 
	C322.801361,26.120306 330.381714,19.586399 339.530853,20.413414 
	C344.821594,20.891661 349.982422,22.807570 355.921631,24.251474 
	C353.655029,29.168261 351.959991,32.845215 350.857635,35.236488 
	C345.847748,34.795143 341.791168,34.437775 337.418243,34.294731 
z"/>
<path fill="#FAFCFC" opacity="1.000000" stroke="none" 
	d="
M256.677795,50.708931 
	C253.452286,59.141708 250.052155,67.111542 247.419495,75.327301 
	C245.924789,79.991875 243.508972,81.767250 238.838089,81.014557 
	C237.548767,80.806786 236.197586,80.982941 234.375290,80.982941 
	C227.081314,61.606792 219.797577,42.257839 212.159409,21.967342 
	C217.135284,21.967342 221.376999,21.681942 225.533371,22.151663 
	C226.690323,22.282412 227.994339,24.501078 228.550339,26.012268 
	C232.263611,36.104935 235.792603,46.265388 239.837753,57.692921 
	C243.103134,48.648781 245.977127,40.775478 248.788986,32.880054 
	C252.830658,21.531445 252.811462,21.521517 264.912231,21.946798 
	C265.554108,21.969358 266.191650,22.115595 267.479218,22.294094 
	C263.864716,31.811466 260.344604,41.080215 256.677795,50.708931 
z"/>
<path fill="#F6FAFB" opacity="1.000000" stroke="none" 
	d="
M182.301788,80.993980 
	C180.700806,80.201973 178.582260,79.419144 178.574265,78.615341 
	C178.387955,59.859726 178.430084,41.101837 178.430084,22.134613 
	C188.586395,22.134613 198.189880,22.134613 208.213440,22.134613 
	C208.213440,26.233789 208.213440,30.268684 208.213440,34.782288 
	C203.116501,34.782288 198.038345,34.782288 192.568817,34.782288 
	C192.568817,38.272621 192.568817,41.297871 192.568817,44.765530 
	C197.478821,44.765530 202.248672,44.765530 207.375488,44.765530 
	C207.375488,49.230850 207.375488,53.266457 207.375488,57.763298 
	C202.400665,57.763298 197.638275,57.763298 192.530823,57.763298 
	C192.530823,61.268467 192.530823,64.321686 192.530823,67.861908 
	C197.684372,67.861908 202.771378,67.861908 208.244049,67.861908 
	C208.244049,72.375816 208.244049,76.419304 208.244049,80.993385 
	C199.643219,80.993385 191.205307,80.993385 182.301788,80.993980 
z"/>
<path fill="#F9FBFC" opacity="1.000000" stroke="none" 
	d="
M364.963501,41.000572 
	C364.963379,34.535789 364.963379,28.570883 364.963379,22.269306 
	C375.082062,22.269306 384.805237,22.269306 394.865662,22.269306 
	C394.865662,26.380348 394.865662,30.419409 394.865662,34.930779 
	C389.544922,34.930779 384.453552,34.930779 379.060974,34.930779 
	C379.060974,38.307724 379.060974,41.228207 379.060974,44.762455 
	C383.762665,44.762455 388.488098,44.762455 393.496887,44.762455 
	C393.496887,49.281780 393.496887,53.195461 393.496887,57.570641 
	C388.817017,57.570641 384.228302,57.570641 379.031189,57.570641 
	C379.031189,65.381218 379.031189,72.772705 379.031189,80.564453 
	C374.215637,80.564453 369.994751,80.564453 364.963593,80.564453 
	C364.963593,67.649315 364.963593,54.574883 364.963501,41.000572 
z"/>
<path fill="#F4F8F9" opacity="1.000000" stroke="none" 
	d="
M449.715759,79.932159 
	C442.740936,88.157417 439.364624,88.256577 426.777710,79.831100 
	C435.126862,79.831100 442.242645,79.831100 449.715759,79.932159 
z"/>
<path fill="#3A82B5" opacity="1.000000" stroke="none" 
	d="
M454.485229,61.421665 
	C448.595123,61.684940 442.707031,62.015900 436.814270,62.188320 
	C432.705078,62.308552 428.589569,62.211491 424.174408,62.211491 
	C424.174408,47.300793 424.174408,32.799442 424.662659,18.307430 
	C425.418121,18.815193 425.685364,19.313620 425.888672,20.231842 
	C425.825470,21.782675 425.826202,22.913710 425.680450,24.242809 
	C425.979858,24.964014 426.425812,25.487158 426.762695,26.391071 
	C426.471710,28.820992 426.289856,30.870138 425.913208,33.099236 
	C425.854065,33.876568 425.989716,34.473946 426.008545,35.523064 
	C425.927826,43.978672 425.963989,51.982540 426.031647,60.269249 
	C435.361389,60.692913 444.659607,60.833736 454.089050,61.087105 
	C454.220245,61.199646 454.485229,61.421665 454.485229,61.421665 
z"/>
<path fill="#3D85B5" opacity="1.000000" stroke="none" 
	d="
M425.952606,19.812044 
	C425.685364,19.313620 425.418121,18.815193 425.033844,18.059402 
	C428.587402,15.565110 432.130157,13.059878 435.990173,11.220413 
	C437.583069,10.461335 440.071899,10.591472 441.775299,11.268324 
	C444.985107,12.543801 447.920837,14.509024 450.940277,16.615242 
	C450.608826,17.348232 450.307617,17.653503 449.660828,17.892025 
	C442.440460,12.155398 435.662811,12.118983 428.916901,18.092514 
	C428.078583,18.834843 426.947845,19.246935 425.952606,19.812044 
z"/>
<path fill="#3A82B5" opacity="1.000000" stroke="none" 
	d="
M454.367340,26.978653 
	C454.458252,38.173126 454.549133,49.367599 454.562622,60.991867 
	C454.485229,61.421665 454.220245,61.199646 453.907410,60.859306 
	C453.279724,60.292229 452.964874,60.065491 452.685669,59.537994 
	C452.682068,58.839241 452.642822,58.441250 452.655396,57.574883 
	C452.649902,50.052673 452.592529,42.998837 452.653351,35.515709 
	C452.785339,32.424950 452.799164,29.763483 453.071960,27.079445 
	C453.676392,27.030800 454.021851,27.004726 454.367340,26.978653 
z"/>
<path fill="#2B79AF" opacity="1.000000" stroke="none" 
	d="
M454.466370,26.618952 
	C454.021851,27.004726 453.676392,27.030800 452.725372,27.073282 
	C449.019867,29.380297 445.919922,31.670898 442.546326,33.958420 
	C441.907898,33.960865 441.543121,33.966393 441.120056,33.598007 
	C441.953400,31.831696 442.551849,30.036802 443.797058,29.129980 
	C446.454742,27.194464 449.447571,25.719223 452.560486,24.051498 
	C453.332184,24.048584 453.846527,24.049568 454.360870,24.050549 
	C454.429077,24.786783 454.497253,25.523018 454.466370,26.618952 
z"/>
<path fill="#3A82B5" opacity="1.000000" stroke="none" 
	d="
M454.481140,23.690559 
	C453.846527,24.049568 453.332184,24.048584 452.684326,23.753704 
	C452.663208,22.390656 452.775635,21.321501 453.082031,19.985205 
	C453.615021,19.439829 453.954071,19.161594 454.293152,18.883354 
	C454.395935,20.365757 454.498688,21.848162 454.481140,23.690559 
z"/>
<path fill="#2B79AF" opacity="1.000000" stroke="none" 
	d="
M454.215820,18.575762 
	C453.954071,19.161594 453.615021,19.439829 452.877075,19.752651 
	C451.654297,19.177748 450.830353,18.568254 450.006409,17.958769 
	C450.307617,17.653503 450.608826,17.348232 451.182068,16.867374 
	C452.348877,17.217247 453.243683,17.742706 454.215820,18.575762 
z"/>
<path fill="#2877B3" opacity="1.000000" stroke="none" 
	d="
M95.795769,36.941315 
	C104.401154,43.748573 105.965919,53.481571 100.094406,61.792606 
	C94.138924,70.222496 82.739548,70.239693 77.057152,61.630802 
	C73.130684,55.682152 72.294670,49.209766 75.867752,42.770660 
	C78.735695,37.602295 83.229836,34.629082 89.323753,35.016094 
	C91.398468,35.147858 93.417862,36.150539 95.795769,36.941315 
z"/>
<path fill="#2777B3" opacity="1.000000" stroke="none" 
	d="
M138.792969,59.945358 
	C138.793671,51.495586 138.793671,43.536777 138.793671,35.278713 
	C145.232834,34.344395 150.516815,35.674412 153.971313,40.930557 
	C158.154175,47.294891 158.173141,54.267567 154.734558,60.891804 
	C151.592361,66.945068 145.875793,68.394348 138.792282,67.869957 
	C138.792282,65.310417 138.792282,62.873367 138.792969,59.945358 
z"/>
<path fill="#317DB6" opacity="1.000000" stroke="none" 
	d="
M290.667053,58.981522 
	C287.944031,58.981499 285.656403,58.981499 282.982269,58.981499 
	C283.464233,57.058903 283.753998,55.623615 284.185852,54.232433 
	C285.496338,50.010735 286.861755,45.806103 288.561432,40.480522 
	C290.448486,46.630424 292.075043,51.639122 293.408722,56.724632 
	C293.543823,57.239910 291.913513,58.218155 290.667053,58.981522 
z"/>
<path fill="#F6F9FA" opacity="1.000000" stroke="none" 
	d="
M449.660828,17.892021 
	C450.830353,18.568254 451.654297,19.177748 452.683167,20.019791 
	C452.775635,21.321501 452.663208,22.390656 452.426941,23.757605 
	C449.447571,25.719223 446.454742,27.194464 443.797058,29.129980 
	C442.551849,30.036802 441.953400,31.831696 441.033356,34.055695 
	C440.987030,37.535881 441.182770,40.207726 440.897552,42.827202 
	C440.536102,46.147312 441.650024,48.256702 444.942474,49.517830 
	C442.972900,54.497623 439.016113,55.741802 434.778931,53.009598 
	C434.357635,53.002827 434.189087,53.000645 433.951660,52.667336 
	C433.980865,51.053230 433.785248,48.772240 434.222839,48.643486 
	C438.092926,47.504765 437.265045,44.483986 437.311432,41.793346 
	C437.342957,39.965630 437.116058,38.108910 437.362030,36.314133 
	C438.045654,31.326500 435.847748,28.896997 430.979614,28.350880 
	C430.189148,27.323345 429.387299,26.554972 428.585419,25.786598 
	C428.262756,26.179993 427.940125,26.573385 427.617462,26.966780 
	C428.681122,27.967974 429.744781,28.969166 431.077057,30.052332 
	C431.581268,30.414051 431.816833,30.693798 431.760925,31.380924 
	C431.307922,32.080627 431.146454,32.372952 430.582947,32.729416 
	C428.823303,32.835464 427.465637,32.877373 426.107971,32.919281 
	C426.289856,30.870138 426.471710,28.820992 426.825256,26.087460 
	C426.606934,24.950296 426.216949,24.497522 425.826965,24.044746 
	C425.826202,22.913710 425.825470,21.782675 425.888672,20.231840 
	C426.947845,19.246935 428.078583,18.834843 428.916901,18.092514 
	C435.662811,12.118983 442.440460,12.155398 449.660828,17.892021 
z"/>
<path fill="#F5F8F9" opacity="1.000000" stroke="none" 
	d="
M434.020508,52.998459 
	C434.189087,53.000645 434.357635,53.002827 434.694855,53.405937 
	C436.305328,54.876957 437.872772,56.957520 439.161530,56.797237 
	C441.515167,56.504513 443.703857,54.885296 446.299866,53.668434 
	C446.513153,51.614063 446.387939,49.710621 446.269226,47.779472 
	C446.275726,47.751759 446.235992,47.710983 446.010040,47.410942 
	C440.580414,44.452114 443.738708,39.784004 443.531677,36.009895 
	C446.807373,35.979183 449.671265,35.962093 452.535187,35.945004 
	C452.592529,42.998837 452.649902,50.052673 452.499878,57.744873 
	C452.178314,58.824715 452.064117,59.266186 451.493774,59.805260 
	C442.691803,59.930710 434.345978,59.958561 426.000153,59.986412 
	C425.963989,51.982540 425.927826,43.978672 426.454346,35.532162 
	C429.587738,35.089523 432.158447,35.089523 435.042480,35.089523 
	C434.237427,39.937351 436.913025,44.616020 432.072723,47.996853 
	C431.417236,48.454670 429.819427,52.672359 434.020508,52.998459 
z"/>
<path fill="#3688BC" opacity="1.000000" stroke="none" 
	d="
M433.951660,52.667336 
	C429.819427,52.672359 431.417236,48.454670 432.072723,47.996853 
	C436.913025,44.616020 434.237427,39.937351 435.042480,35.089523 
	C432.158447,35.089523 429.587738,35.089523 426.571198,35.080421 
	C425.989716,34.473946 425.854065,33.876568 425.913208,33.099236 
	C427.465637,32.877373 428.823303,32.835464 430.931458,32.808464 
	C432.578583,32.823376 433.475281,32.823376 434.371948,32.823376 
	C434.424042,32.571915 434.476135,32.320457 434.528229,32.068996 
	C433.702972,31.703840 432.877686,31.338682 432.052429,30.973536 
	C431.816833,30.693798 431.581268,30.414051 431.066040,29.706348 
	C430.846954,29.055609 430.907562,28.832827 430.968170,28.610043 
	C435.847748,28.896997 438.045654,31.326500 437.362030,36.314133 
	C437.116058,38.108910 437.342957,39.965630 437.311432,41.793346 
	C437.265045,44.483986 438.092926,47.504765 434.222839,48.643486 
	C433.785248,48.772240 433.980865,51.053230 433.951660,52.667336 
z"/>
<path fill="#3688BC" opacity="1.000000" stroke="none" 
	d="
M426.031647,60.269253 
	C434.345978,59.958561 442.691803,59.930710 451.666046,59.852806 
	C452.294464,59.802750 452.650055,59.838753 452.650055,59.838753 
	C452.964874,60.065491 453.279724,60.292229 453.776184,60.746765 
	C444.659607,60.833736 435.361389,60.692913 426.031647,60.269253 
z"/>
<path fill="#3688BC" opacity="1.000000" stroke="none" 
	d="
M425.680420,24.242809 
	C426.216949,24.497522 426.606934,24.950296 426.934357,25.706686 
	C426.425812,25.487158 425.979858,24.964014 425.680420,24.242809 
z"/>
<path fill="#D9E8EE" opacity="1.000000" stroke="none" 
	d="
M452.653351,35.515709 
	C449.671265,35.962093 446.807373,35.979183 443.469604,35.667923 
	C442.937134,34.880219 442.878540,34.420864 442.819946,33.961506 
	C445.919922,31.670898 449.019867,29.380297 452.466431,27.095856 
	C452.799164,29.763483 452.785339,32.424950 452.653351,35.515709 
z"/>
<path fill="#D9E8EE" opacity="1.000000" stroke="none" 
	d="
M452.685669,59.537994 
	C452.650055,59.838753 452.294464,59.802750 452.122192,59.755203 
	C452.064117,59.266186 452.178314,58.824715 452.448059,58.213249 
	C452.642822,58.441250 452.682068,58.839241 452.685669,59.537994 
z"/>
<path fill="#478BBB" opacity="1.000000" stroke="none" 
	d="
M442.546326,33.958424 
	C442.878540,34.420864 442.937134,34.880219 443.057800,35.681545 
	C443.738708,39.784004 440.580414,44.452114 445.752991,47.617607 
	C445.449707,48.466049 445.177490,48.807785 444.905273,49.149517 
	C441.650024,48.256702 440.536102,46.147312 440.897552,42.827202 
	C441.182770,40.207726 440.987030,37.535881 441.091614,34.429607 
	C441.543121,33.966393 441.907898,33.960865 442.546326,33.958424 
z"/>
<path fill="#2678B0" opacity="1.000000" stroke="none" 
	d="
M444.942474,49.517830 
	C445.177490,48.807785 445.449707,48.466049 445.978943,47.917648 
	C446.235992,47.710983 446.275726,47.751759 446.191467,48.207039 
	C446.058594,50.381336 446.009979,52.100349 445.961334,53.819366 
	C443.703857,54.885296 441.515167,56.504513 439.161530,56.797237 
	C437.872772,56.957520 436.305328,54.876957 434.947632,53.410530 
	C439.016113,55.741802 442.972900,54.497623 444.942474,49.517830 
z"/>
<path fill="#E8F0F3" opacity="1.000000" stroke="none" 
	d="
M430.979614,28.350880 
	C430.907562,28.832827 430.846954,29.055609 430.797363,29.624374 
	C429.744781,28.969166 428.681122,27.967974 427.617462,26.966780 
	C427.940125,26.573385 428.262756,26.179993 428.585419,25.786598 
	C429.387299,26.554972 430.189148,27.323345 430.979614,28.350880 
z"/>
<path fill="#E8F0F3" opacity="1.000000" stroke="none" 
	d="
M431.760925,31.380917 
	C432.877686,31.338682 433.702972,31.703840 434.528229,32.068996 
	C434.476135,32.320457 434.424042,32.571915 434.371948,32.823376 
	C433.475281,32.823376 432.578583,32.823376 431.333435,32.744324 
	C431.146454,32.372952 431.307922,32.080627 431.760925,31.380917 
z"/>
<path fill="#478BBB" opacity="1.000000" stroke="none" 
	d="
M446.299866,53.668434 
	C446.009979,52.100349 446.058594,50.381336 446.184937,48.234753 
	C446.387939,49.710621 446.513153,51.614063 446.299866,53.668434 
z"/>
</svg>