<?xml version="1.0" encoding="UTF-8" standalone="no"?>
<svg
   xmlns:dc="http://purl.org/dc/elements/1.1/"
   xmlns:cc="http://creativecommons.org/ns#"
   xmlns:rdf="http://www.w3.org/1999/02/22-rdf-syntax-ns#"
   xmlns:svg="http://www.w3.org/2000/svg"
   xmlns="http://www.w3.org/2000/svg"
   viewBox="0 0 784.07202 203.29333"
   height="203.29333"
   width="784.07202"
   xml:space="preserve"
   id="svg2"
   version="1.1"><metadata
     id="metadata8"><rdf:RDF><cc:Work
         rdf:about=""><dc:format>image/svg+xml</dc:format><dc:type
           rdf:resource="http://purl.org/dc/dcmitype/StillImage" /></cc:Work></rdf:RDF></metadata><defs
     id="defs6"><clipPath
       id="clipPath18"
       clipPathUnits="userSpaceOnUse"><path
         id="path16"
         d="M 0,152.47 H 588.054 V 0 H 0 Z" /></clipPath></defs><g
     transform="matrix(1.3333333,0,0,-1.3333333,0,203.29333)"
     id="g10"><g
       id="g12"><g
         clip-path="url(#clipPath18)"
         id="g14"><g
           transform="translate(148.4409,90.3819)"
           id="g20"><path
             id="path22"
             style="fill:#5086be;fill-opacity:1;fill-rule:nonzero;stroke:none"
             d="m 0,0 c -0.788,0.755 -0.788,2.047 0,2.801 l 51.63,42.702 c 1.229,1.177 0.427,3.306 -1.245,3.306 H 26.629 c -0.509,0 -0.994,-0.219 -1.342,-0.604 L -11.527,14.022 v 30.977 c 0,2.104 -1.644,3.81 -3.673,3.81 h -11.018 c -2.029,0 -3.673,-1.706 -3.673,-3.81 v -87.196 c 0,-2.105 1.644,-3.812 3.673,-3.812 H -15.2 c 2.029,0 3.673,1.707 3.673,3.812 v 30.975 l 36.814,-34.182 c 0.348,-0.386 0.833,-0.605 1.342,-0.605 h 23.756 c 1.672,0 2.474,2.13 1.245,3.306 z" /></g><g
           transform="translate(101.9065,38.4263)"
           id="g24"><path
             id="path26"
             style="fill:#5086be;fill-opacity:1;fill-rule:nonzero;stroke:none"
             d="m 0,0 h -44.944 -17.152 -8.719 c -2.344,0 -4.244,1.971 -4.244,4.403 v 61.46 c 0,2.432 1.9,4.403 4.244,4.403 h 8.719 17.152 15.119 c 8.325,0 15.074,0.763 15.074,-7.876 0,-8.639 -6.749,-15.641 -15.074,-15.641 h -10.876 -1.659 c -1.34,0 -2.602,-0.657 -3.402,-1.773 L -56.121,30.551 c -2.086,-2.904 -0.088,-7.034 3.402,-7.034 H -40.701 -17.188 0 c 8.325,0 15.074,-7.003 15.074,-15.641 C 15.074,-0.763 8.325,0 0,0 m 0,43.852 c -2.174,0 -4.283,-0.267 -6.346,-0.664 9.258,4.482 15.714,14.158 15.714,25.459 0,14.398 -10.454,18.37 -23.892,20.05 -0.587,0.153 -1.167,0.339 -1.796,0.339 h -72.584 c -2.344,0 -4.244,-1.971 -4.244,-4.403 V -16.105 c 0,-2.431 1.9,-4.402 4.244,-4.402 h 85.68 c 0.556,0 1.033,0.23 1.552,0.348 0.566,-0.029 1.099,-0.175 1.672,-0.175 19.148,0 34.671,8.34 34.671,28.21 0,19.869 -15.523,35.976 -34.671,35.976" /></g><g
           transform="translate(297.8762,94.3564)"
           id="g28"><path
             id="path30"
             style="fill:#425567;fill-opacity:1;fill-rule:nonzero;stroke:none"
             d="m 0,0 h -14.453 -7.817 -50.876 -19.596 -2.674 c -0.477,0 -0.932,-0.205 -1.258,-0.567 l -12.862,-14.291 c -1.028,-1.142 -0.248,-3.006 1.258,-3.006 h 25.486 20.045 V -83.26 c 0,-1.973 1.542,-3.573 3.443,-3.573 h 10.33 c 1.901,0 3.443,1.6 3.443,3.573 v 65.396 h 11.045 18.211 c 1.298,0 2.548,0.507 3.503,1.421 L 1.167,-3.099 C 2.319,-1.997 1.567,0 0,0" /></g><g
           transform="translate(349.5968,40.9639)"
           id="g32"><path
             id="path34"
             style="fill:#425567;fill-opacity:1;fill-rule:nonzero;stroke:none"
             d="m 0,0 13.94,13.344 c 1.152,1.103 0.4,3.099 -1.168,3.099 H -1.681 -9.498 -25.419 v 18.92 h 7.749 11.045 18.212 c 1.297,0 2.548,0.507 3.502,1.421 l 13.939,13.344 c 1.152,1.102 0.4,3.099 -1.167,3.099 h -14.453 -7.817 -34.454 -5.164 -5.165 c -1.902,0 -3.443,-1.599 -3.443,-3.572 v -79.688 c 0,-1.973 1.541,-3.573 3.443,-3.573 h 10.329 c 1.902,0 3.444,1.6 3.444,3.573 V -1.42 h 3.705 18.212 c 1.298,0 2.548,0.506 3.502,1.42" /></g><g
           transform="translate(377.4579,25.2224)"
           id="g36"><path
             id="path38"
             style="fill:#425567;fill-opacity:1;fill-rule:nonzero;stroke:none"
             d="m 0,0 h -14.453 -5.766 -2.051 -0.267 -6.263 c -1.298,0 -2.549,-0.507 -3.503,-1.42 l -13.939,-13.344 c -1.152,-1.103 -0.4,-3.1 1.167,-3.1 h 14.453 7.817 0.268 2.318 3.944 c 1.298,0 2.548,0.507 3.503,1.421 L 1.167,-3.099 C 2.319,-1.997 1.567,0 0,0" /></g><g
           transform="translate(481.4021,25.5213)"
           id="g40"><path
             id="path42"
             style="fill:#425567;fill-opacity:1;fill-rule:nonzero;stroke:none"
             d="M 0,0 H -14.453 -22.27 L -50.992,0.028 C -66.89,1.826 -79.31,8.309 -79.31,25.285 c 0,16.732 12.065,23.07 27.633,25.185 l 17.191,-0.027 h 18.211 c 1.298,0 2.549,0.507 3.503,1.421 L 1.167,65.208 c 1.152,1.103 0.4,3.099 -1.167,3.099 h -14.453 -7.817 l -30.627,0.03 c -0.247,0.003 -0.488,0.033 -0.736,0.033 -0.208,0 -0.409,-0.029 -0.617,-0.032 l -0.855,0.001 v -0.046 c -26.146,-0.815 -47.114,-15.68 -47.114,-43.008 0,-27.594 21.372,-42.648 47.873,-43.049 v -0.068 l 19.86,-0.032 h 18.211 c 1.298,0 2.549,0.507 3.503,1.421 L 1.167,-3.099 C 2.319,-1.997 1.567,0 0,0" /></g><g
           transform="translate(511.5781,94.0256)"
           id="g44"><path
             id="path46"
             style="fill:#425567;fill-opacity:1;fill-rule:nonzero;stroke:none"
             d="m 0,0 h -10.33 c -1.901,0 -3.442,-1.599 -3.442,-3.573 v -79.356 c 0,-1.973 1.541,-3.573 3.442,-3.573 H 0 c 1.902,0 3.443,1.6 3.443,3.573 V -3.573 C 3.443,-1.599 1.902,0 0,0" /></g><g
           transform="translate(574.1465,93.0128)"
           id="g48"><path
             id="path50"
             style="fill:#425567;fill-opacity:1;fill-rule:nonzero;stroke:none"
             d="m 0,0 h -10.33 c -1.901,0 -3.443,-1.6 -3.443,-3.573 v -29.733 h -13.103 -0.267 -6.263 c -1.298,0 -2.548,-0.507 -3.502,-1.421 l -13.94,-13.344 c -1.152,-1.102 -0.4,-3.099 1.167,-3.099 h 14.454 7.816 0.268 13.37 v -31.759 c 0,-1.973 1.542,-3.573 3.443,-3.573 H 0 c 1.902,0 3.443,1.6 3.443,3.573 V -3.573 C 3.443,-1.6 1.902,0 0,0" /></g></g></g></g></svg>