<?xml version="1.0" standalone="no"?>
<!DOCTYPE svg PUBLIC "-//W3C//DTD SVG 20010904//EN"
 "http://www.w3.org/TR/2001/REC-SVG-20010904/DTD/svg10.dtd">
<svg version="1.0" xmlns="http://www.w3.org/2000/svg"
 width="600.000000pt" height="300.000000pt" viewBox="0 0 600.000000 300.000000"
 preserveAspectRatio="xMidYMid meet">

<g transform="translate(0.000000,300.000000) scale(0.100000,-0.100000)"
fill="#000000" stroke="none">
<path d="M1517 2063 c-4 -3 -7 -123 -7 -265 0 -142 -2 -258 -5 -258 -4 0 -20
7 -38 16 -18 10 -58 17 -93 18 l-61 1 42 40 c55 51 76 95 82 164 8 101 -47
158 -172 180 -81 14 -660 15 -686 1 -18 -10 -19 -26 -19 -459 0 -374 2 -450
14 -460 11 -9 128 -11 453 -9 433 3 439 3 488 26 61 28 91 55 118 107 19 35
22 60 25 213 2 94 7 172 10 172 4 -1 77 -66 162 -145 l155 -145 113 0 c61 0
112 3 112 8 0 4 -101 91 -225 192 -161 133 -224 190 -222 204 1 10 97 97 221
200 121 99 220 186 220 191 1 6 -43 11 -106 13 l-107 3 -163 -151 -163 -150
-3 137 c-1 80 -7 142 -14 150 -11 13 -119 19 -131 6z m-301 -267 c14 -11 19
-26 18 -61 -2 -89 -63 -135 -181 -135 -71 0 -72 0 -101 -37 -16 -21 -42 -57
-57 -80 -47 -72 -43 -73 242 -73 272 0 298 -5 333 -62 11 -19 20 -51 20 -75 0
-74 6 -73 -400 -73 -264 0 -359 3 -368 12 -17 17 -17 569 0 586 19 19 468 17
494 -2z"/>
<path d="M2157 1615 c-32 -36 -55 -69 -52 -75 4 -6 83 -10 205 -10 l200 0 2
-292 3 -293 64 -3 c45 -2 67 1 72 10 5 7 9 140 9 296 l0 282 130 0 131 0 68
63 c38 34 69 68 70 75 1 9 -90 12 -421 12 l-423 0 -58 -65z"/>
<path d="M3135 1667 c-3 -6 -4 -172 -3 -367 l3 -355 66 -3 c80 -3 79 -7 79
156 l0 112 94 0 94 0 49 39 c67 54 106 97 99 110 -5 7 -65 11 -172 11 l-164 0
0 80 0 80 166 0 166 0 69 67 c38 36 69 70 69 75 0 4 -137 8 -305 8 -236 0
-307 -3 -310 -13z"/>
<path d="M4075 1673 c-121 -27 -223 -88 -269 -162 -83 -131 -71 -328 28 -438
96 -107 188 -133 471 -133 l200 0 68 61 c37 33 67 67 67 75 0 12 -38 14 -227
14 -250 0 -316 10 -383 54 -54 36 -80 90 -80 166 0 165 100 220 398 220 l164
0 64 62 c35 33 64 67 64 75 0 11 -51 13 -272 12 -150 -1 -282 -3 -293 -6z"/>
<path d="M4775 1667 c-3 -6 -4 -172 -3 -367 l3 -355 64 -3 c45 -2 67 1 72 10
10 15 12 688 3 712 -8 20 -132 23 -139 3z"/>
<path d="M5317 1663 c-4 -3 -7 -66 -7 -140 l0 -133 -91 0 -91 0 -69 -67 c-38
-36 -69 -72 -69 -80 0 -10 33 -13 160 -13 l159 0 3 -147 3 -148 64 -3 c45 -2
67 1 72 10 10 15 12 688 3 712 -5 12 -21 16 -68 16 -35 0 -66 -3 -69 -7z"/>
<path d="M3399 1023 c-38 -36 -69 -70 -69 -75 0 -4 64 -8 143 -8 l142 1 68 64
c38 35 66 69 62 75 -4 6 -59 10 -142 10 l-135 0 -69 -67z"/>
</g>
</svg>
